<svg width="612" height="95" viewBox="0 0 612 95" fill="none" xmlns="http://www.w3.org/2000/svg">
<path d="M0 8.51965H34.1206C57.2559 8.51965 68.8236 17.7007 68.8236 36.0627C68.8236 42.3649 67.5426 47.5778 64.9806 51.7015C62.4963 55.8251 58.6922 59.093 53.5683 61.5049L73.9475 93.3661H49.9582L32.6068 65.2396H21.8931V93.3661H0V8.51965ZM21.4273 47.7334H32.9561C37.2261 47.7334 40.4479 46.9554 42.6217 45.3993C44.8731 43.7654 45.9988 41.0811 45.9988 37.3464C45.9988 33.8452 44.9119 31.2776 42.7381 29.6437C40.642 28.0098 37.0708 27.1929 32.0245 27.1929H21.4273V47.7334Z" fill="white"/>
<path d="M110.276 77.7273C120.446 77.7273 125.531 72.3198 125.531 61.5049C125.531 55.9029 124.289 51.8182 121.805 49.2506C119.321 46.683 115.478 45.3993 110.276 45.3993C105.385 45.3993 101.62 46.683 98.9803 49.2506C96.4183 51.8182 95.1373 55.9029 95.1373 61.5049C95.1373 67.0291 96.4959 71.1138 99.2132 73.7592C101.93 76.4046 105.618 77.7273 110.276 77.7273ZM110.276 94.7666C98.7085 94.7666 89.7417 92.0823 83.3756 86.7138C77.0871 81.3452 73.9429 72.9423 73.9429 61.5049C73.9429 55.9807 74.7969 51.1568 76.5049 47.0332C78.2129 42.9095 80.6195 39.4861 83.725 36.7629C86.908 33.9619 90.7121 31.8612 95.1373 30.4607C99.6402 29.0602 104.686 28.3599 110.276 28.3599C121.766 28.3599 130.694 31.0831 137.06 36.5295C143.504 41.898 146.726 50.2232 146.726 61.5049C146.726 72.4754 143.582 80.7617 137.293 86.3636C131.005 91.9656 121.999 94.7666 110.276 94.7666Z" fill="white"/>
<path d="M192.645 66.64C191.48 66.4066 190.044 66.2121 188.336 66.0565C186.706 65.9009 184.959 65.8231 183.096 65.8231C178.049 65.8231 174.517 66.4455 172.498 67.6904C170.557 68.8575 169.587 70.4914 169.587 72.5921C169.587 74.5373 170.325 76.1712 171.8 77.4939C173.352 78.8165 175.875 79.4779 179.369 79.4779C183.328 79.4779 186.511 78.5831 188.918 76.7936C191.402 75.0041 192.645 72.5921 192.645 69.5577V66.64ZM213.14 93.3661H193.11V84.8464H192.761C192.062 86.0135 191.17 87.1806 190.083 88.3477C188.996 89.5147 187.598 90.5651 185.89 91.4988C184.26 92.4324 182.28 93.2105 179.951 93.8329C177.7 94.4554 175.021 94.7666 171.916 94.7666C164.618 94.7666 158.99 93.016 155.03 89.5147C151.071 86.0135 149.091 81.1118 149.091 74.8096C149.091 68.0405 151.498 63.0999 156.311 59.9877C161.125 56.7977 168.617 55.2027 178.787 55.2027C181.892 55.2027 184.687 55.3194 187.171 55.5528C189.656 55.7862 191.48 55.9807 192.645 56.1364V53.5688C192.645 50.6122 191.674 48.4337 189.733 47.0332C187.792 45.5549 184.26 44.8157 179.136 44.8157C174.478 44.8157 170.053 45.3215 165.861 46.3329C161.668 47.2666 158.252 48.3558 155.613 49.6007V33.145C158.408 31.9779 162.289 30.8886 167.258 29.8771C172.227 28.8657 177.816 28.3599 184.027 28.3599C189.229 28.3599 193.654 28.8268 197.303 29.7604C201.029 30.6941 204.057 32.2113 206.386 34.312C208.715 36.335 210.423 39.0192 211.51 42.3649C212.597 45.7105 213.14 49.8342 213.14 54.7359V93.3661Z" fill="white"/>
<path d="M269.49 85.1966C268.481 86.5192 267.316 87.7641 265.996 88.9312C264.754 90.0205 263.279 91.0319 261.571 91.9656C259.863 92.8215 257.922 93.4828 255.748 93.9496C253.575 94.4943 251.09 94.7666 248.295 94.7666C238.358 94.7666 230.789 91.8489 225.587 86.0135C220.386 80.1781 217.785 72.0475 217.785 61.6216C217.785 55.9418 218.483 51.0401 219.881 46.9165C221.356 42.715 223.375 39.2527 225.936 36.5295C228.576 33.7285 231.681 31.6667 235.253 30.344C238.824 29.0213 242.744 28.3599 247.014 28.3599C250.12 28.3599 252.837 28.6712 255.166 29.2936C257.573 29.916 259.669 30.733 261.455 31.7445C263.24 32.6781 264.754 33.7285 265.996 34.8956C267.238 36.0626 268.286 37.1519 269.14 38.1634H269.49V0H289.985V93.3661H269.956V85.1966H269.49ZM253.885 77.7273C259.164 77.7273 263.085 76.2879 265.647 73.4091C268.209 70.5303 269.49 66.5622 269.49 61.5049C269.49 56.3698 268.17 52.4017 265.53 49.6007C262.891 46.7997 259.048 45.3993 254.002 45.3993C249.654 45.3993 246.044 46.683 243.171 49.2506C240.377 51.8182 238.979 56.0586 238.979 61.9717C238.979 67.3403 240.299 71.3083 242.939 73.8759C245.578 76.4435 249.227 77.7273 253.885 77.7273Z" fill="white"/>
<path d="M297.55 70.8415C298.87 71.6196 300.462 72.3587 302.325 73.059C304.188 73.6814 306.207 74.2649 308.38 74.8096C310.554 75.2764 312.806 75.6654 315.135 75.9767C317.541 76.2101 319.909 76.3268 322.238 76.3268C326.974 76.3268 330.506 75.8989 332.836 75.043C335.242 74.1093 336.446 72.3976 336.446 69.9079C336.446 68.7408 336.251 67.7293 335.863 66.8735C335.553 66.0176 334.854 65.2007 333.767 64.4226C332.758 63.5667 331.244 62.7109 329.225 61.855C327.285 60.9992 324.684 60.0266 321.423 58.9373L317.93 57.7703C310.632 55.3583 305.197 52.1294 301.626 48.0835C298.133 44.0377 296.386 38.5524 296.386 31.6278C296.386 23.8473 299.297 17.7785 305.12 13.4214C310.942 9.06428 319.094 6.88574 329.575 6.88574C339.357 6.88574 347.509 8.16953 354.03 10.7371V29.0602C350.924 27.9709 347.314 27.1151 343.2 26.4926C339.163 25.8702 335.281 25.559 331.555 25.559C327.129 25.559 323.946 26.0258 322.005 26.9595C320.142 27.8931 319.211 29.527 319.211 31.8612C319.211 32.7948 319.482 33.6507 320.026 34.4287C320.569 35.2068 321.462 36.0237 322.704 36.8796C324.024 37.6577 325.771 38.4746 327.944 39.3305C330.118 40.1863 332.836 41.1978 336.096 42.3649L339.823 43.6486C346.655 45.9828 351.584 49.0561 354.612 52.8685C357.718 56.6032 359.27 61.466 359.27 67.457C359.27 76.4046 356.165 83.2514 349.954 87.9975C343.821 92.6658 334.97 95 323.403 95C318.667 95 314.087 94.5721 309.661 93.7162C305.314 92.9382 301.277 91.6933 297.55 89.9816V70.8415Z" fill="white"/>
<path d="M432.04 93.3661H411.544V60.688C411.544 55.0082 410.69 51.0401 408.982 48.7838C407.274 46.5274 404.285 45.3993 400.015 45.3993C395.202 45.3993 391.669 46.8387 389.418 49.7174C387.244 52.5184 386.157 56.9533 386.157 63.0221V93.3661H365.662V0H386.157V38.5135H386.507C391.009 31.7445 398.23 28.3599 408.167 28.3599C424.082 28.3599 432.04 36.8018 432.04 53.6855V93.3661Z" fill="white"/>
<path d="M473.008 77.7273C483.178 77.7273 488.263 72.3198 488.263 61.5049C488.263 55.9029 487.021 51.8182 484.537 49.2506C482.053 46.683 478.21 45.3993 473.008 45.3993C468.117 45.3993 464.352 46.683 461.712 49.2506C459.15 51.8182 457.869 55.9029 457.869 61.5049C457.869 67.0291 459.228 71.1138 461.945 73.7592C464.662 76.4046 468.35 77.7273 473.008 77.7273ZM473.008 94.7666C461.441 94.7666 452.474 92.0823 446.108 86.7138C439.819 81.3452 436.675 72.9423 436.675 61.5049C436.675 55.9807 437.529 51.1568 439.237 47.0332C440.945 42.9095 443.352 39.4861 446.457 36.7629C449.64 33.9619 453.444 31.8612 457.869 30.4607C462.372 29.0602 467.418 28.3599 473.008 28.3599C484.498 28.3599 493.426 31.0831 499.792 36.5295C506.236 41.898 509.458 50.2232 509.458 61.5049C509.458 72.4754 506.314 80.7617 500.025 86.3636C493.737 91.9656 484.731 94.7666 473.008 94.7666Z" fill="white"/>
<path d="M595.58 93.3661H570.543L559.713 50.6511L549.116 93.3661H523.845L507.775 29.7604H529.086L537.936 73.059L549.348 29.7604H570.659L581.955 73.2924L591.271 29.7604H612L595.58 93.3661Z" fill="white"/>
</svg>
