<svg width="194" height="30" viewBox="0 0 194 30" fill="none" xmlns="http://www.w3.org/2000/svg">
<path d="M50.4195 1.95428L46.694 5.6818C45.514 6.86679 44.8518 8.47118 44.8525 10.1435V19.296C44.8511 20.1262 45.0136 20.9486 45.3306 21.716C45.6476 22.4834 46.113 23.1806 46.7001 23.7677L50.4337 27.4628C51.0195 28.0518 51.7165 28.5185 52.4841 28.836C53.2517 29.1535 54.0748 29.3155 54.9055 29.3124H74.6909V21.904H56.0533C55.8319 21.9043 55.6126 21.8609 55.408 21.7764C55.2034 21.6918 55.0175 21.5677 54.8609 21.4112L52.7659 19.3183C52.4526 19.0003 52.2764 18.5722 52.2751 18.1258V11.2852C52.2749 11.0649 52.3181 10.8467 52.4023 10.6431C52.4866 10.4396 52.6101 10.2546 52.7659 10.0988L54.8609 7.99779C55.1778 7.68296 55.6066 7.50651 56.0533 7.50703H74.6828V0.0986341H54.8832C54.0535 0.0981096 53.2319 0.261807 52.4658 0.580291C51.6997 0.898774 51.0043 1.36575 50.4195 1.95428Z" fill="white"/>
<path d="M146.027 1.9545C145.44 1.36646 144.743 0.900409 143.976 0.5833C143.208 0.266191 142.386 0.104307 141.555 0.106966H116.961V29.3106H124.37V23.4962H141.51C142.339 23.4975 143.16 23.335 143.926 23.0179C144.691 22.7008 145.387 22.2355 145.972 21.6487L148.655 18.9717C149.835 17.7867 150.497 16.1823 150.497 14.51V9.08302C150.505 7.42623 149.86 5.83299 148.7 4.64973L146.027 1.9545ZM143.141 13.3561C143.141 13.5764 143.098 13.7946 143.014 13.9981C142.93 14.2017 142.806 14.3867 142.65 14.5425L141.606 15.593C141.289 15.9078 140.86 16.0843 140.413 16.0838H124.422V7.50724H140.419C140.866 7.50672 141.295 7.68317 141.612 7.99801L142.656 9.04854C142.97 9.36363 143.147 9.79015 143.147 10.2349L143.141 13.3561Z" fill="white"/>
<path d="M81.2356 7.51533H92.2863V29.3207H99.6947V7.51533H110.754V0.106934H81.2356V7.51533Z" fill="white"/>
<path d="M25.045 0.143329H18.9609C17.9881 0.140759 17.0339 0.410201 16.2061 0.921218C15.3783 1.43223 14.7098 2.16448 14.2762 3.0353L0.988525 29.3206H9.29127L12.4124 23.1574H31.5955L34.7248 29.3571H43.0194L29.7399 3.0353C29.3015 2.16605 28.6306 1.43548 27.8017 0.924907C26.9728 0.414329 26.0185 0.143765 25.045 0.143329ZM16.146 15.7044L19.9323 8.20068C20.037 7.99196 20.1978 7.81652 20.3966 7.69402C20.5954 7.57152 20.8244 7.5068 21.0579 7.50711H22.9419C23.1753 7.5075 23.404 7.57251 23.6027 7.69494C23.8013 7.81736 23.9622 7.9924 24.0675 8.20068L27.8538 15.7044H16.146Z" fill="white"/>
<path d="M180.739 3.03578C180.305 2.16558 179.638 1.43374 178.81 0.922762C177.983 0.411787 177.03 0.141994 176.058 0.143808H169.974C169.001 0.145369 168.048 0.416479 167.221 0.926995C166.393 1.43751 165.723 2.16745 165.285 3.03578L152.006 29.3576H160.294L163.446 23.1579H182.629L185.758 29.3576H194L180.739 3.03578ZM167.169 15.7049L170.962 8.20116C171.066 7.99184 171.226 7.81589 171.425 7.69329C171.624 7.57068 171.853 7.50634 172.087 7.50759H173.965C174.199 7.50634 174.428 7.57068 174.627 7.69329C174.826 7.81589 174.987 7.99184 175.091 8.20116L178.869 15.7049H167.169Z" fill="white"/>
</svg>
