<svg width="90" height="80" viewBox="0 0 90 80" fill="none" xmlns="http://www.w3.org/2000/svg">
<path d="M50.6641 61.2039H39.2058C37.3575 61.2039 35.5436 61.7028 33.9552 62.6478L7.20752 78.5759L8.02887 79.957L28.4531 74.1366C30.2829 73.615 32.1762 73.3501 34.0789 73.3497H55.791C57.6936 73.3501 59.587 73.615 61.4167 74.1366L81.839 79.957L82.6623 78.5759L55.9147 62.6478C54.3263 61.7028 52.5123 61.2039 50.6641 61.2039Z" fill="white"/>
<path d="M30.4427 48.7943L36.7458 38.3439C37.7114 36.7442 38.2218 34.9112 38.2222 33.0427V0H36.614L31.0816 24.0037C30.598 26.1055 29.7856 28.1178 28.6743 29.9661L18.3415 47.1658C17.488 48.5828 16.4666 49.8915 15.2994 51.0637L0 66.4646L0.811211 67.8375L26.8977 52.313C28.3509 51.4496 29.5685 50.241 30.4427 48.7943Z" fill="white"/>
<path d="M71.5286 47.1658L61.1856 29.9661C60.0743 28.1178 59.2619 26.1055 58.7784 24.0037L53.2561 0H51.6478V33.0427C51.648 34.9106 52.1585 36.743 53.1242 38.3419L59.4213 48.7943C60.2938 50.2403 61.5093 51.4488 62.9602 52.313L89.0467 67.8375L89.8579 66.4646L74.5524 51.0637C73.3921 49.8901 72.3769 48.5814 71.5286 47.1658Z" fill="white"/>
</svg>
