<svg width="113" height="151" viewBox="0 0 113 151" fill="none" xmlns="http://www.w3.org/2000/svg">
<path fill-rule="evenodd" clip-rule="evenodd" d="M113 56.625C113 97.3384 56.5 151 56.5 151C56.5 151 0 97.3384 0 56.625C0 41.6071 5.95266 27.2043 16.5485 16.5851C27.1443 5.96583 41.5153 0 56.5 0C71.4847 0 85.8557 5.96583 96.4515 16.5851C107.047 27.2043 113 41.6071 113 56.625ZM51.7427 68.8145H60.9056C62.3866 68.8285 63.8363 69.2414 65.1019 70.0097L86.4946 82.7079L85.8363 83.8134L69.5001 79.1599C68.0405 78.7437 66.53 78.5326 65.0121 78.5324H47.6437C46.1258 78.5327 44.6153 78.7439 43.1557 79.1599L26.8045 83.7761L26.1463 82.6706L47.5389 69.9723C48.8104 69.2159 50.2627 68.8159 51.7427 68.8145ZM49.6704 19.9262L45.2423 39.1006C44.8557 40.7799 44.207 42.3881 43.32 43.8661L35.0546 57.6026C34.3754 58.7366 33.559 59.7828 32.6236 60.7174L20.3789 73.0198L21.0372 74.1178L41.8988 61.7184C43.059 61.0238 44.032 60.0572 44.7337 58.9023L49.7752 50.5588C50.5471 49.2805 50.9556 47.8163 50.957 46.3236V19.9262H49.6704ZM67.405 39.1006L62.9768 19.9262H61.6903V46.3236C61.6917 47.8163 62.1002 49.2805 62.8721 50.5588L67.9136 58.9023C68.6133 60.0568 69.5869 61.0214 70.7485 61.7109L91.6101 74.1178L92.2683 73.0198L80.0237 60.7174C79.0947 59.7791 78.2811 58.7335 77.6001 57.6026L69.3273 43.8661C68.443 42.3867 67.7945 40.779 67.405 39.1006Z" fill="white"/>
</svg>
